# xmcd
#
# Track frame offsets:
#	150
#	18891
#	38630
#	56643
#	76894
#	95017
#	116141
#	138326
#	158707
#	177500
#	202711
#	217346
#	237105
#	263156
#	279585
#	297213
#	320819
#
# Disc length: 4573 seconds
#
# Revision: 1
# Processed by: cddbd v1.5.2PL0 Copyright (c) Steve Scherf et al.
# Submitted via: EZCDAudioConverter 9.0.5.1
#
DISCID=f611db11
DTITLE=周傳雄 - 我在身邊 Dubbing (HK CD) DE-Magnetic (EZ-9.05-WAV)
DYEAR=2003
DGENRE=World Pop
TTITLE0=我在身邊
TTITLE1=給你的歌
TTITLE2=多愛我一秒鐘
TTITLE3=永夜
TTITLE4=有沒有一首歌會讓你想起我
TTITLE5=側臉
TTITLE6=我難過
TTITLE7=花香
TTITLE8=不會唱情歌
TTITLE9=哈薩雅琪 2003
TTITLE10=最可靠的朋友
TTITLE11=記事本 - 亞洲慶功版
TTITLE12=黃昏 - 亞洲慶功版
TTITLE13=忘記\n忘記
TTITLE14=出賣
TTITLE15=吉普賽情人
TTITLE16=我的心太亂
EXTD=
EXTT0=
EXTT1=
EXTT2=
EXTT3=
EXTT4=
EXTT5=
EXTT6=
EXTT7=
EXTT8=
EXTT9=
EXTT10=
EXTT11=
EXTT12=
EXTT13=
EXTT14=
EXTT15=
EXTT16=
PLAYORDER=
